{
  "accessors": [
    {
      "bufferView": 2,
      "componentType": 5126,
      "count": 252,
      "max": [
        1705.704833984375,
        1287.71630859375,
        0.0
      ],
      "min": [
        -530.810302734375,
        -948.798828125,
        0.0
      ],
      "type": "VEC3"
    },
    {
      "bufferView": 2,
      "byteOffset": 3024,
      "componentType": 5126,
      "count": 252,
      "max": [
        0.0,
        0.0,
        1.0
      ],
      "min": [
        0.0,
        0.0,
        1.0
      ],
      "type": "VEC3"
    },
    {
      "bufferView": 1,
      "componentType": 5126,
      "count": 252,
      "max": [
        1.0,
        1.0
      ],
      "min": [
        0.0,
        0.0
      ],
      "type": "VEC2"
    },
    {
      "bufferView": 0,
      "componentType": 5125,
      "count": 768,
      "type": "SCALAR"
    },
    {
      "bufferView": 2,
      "byteOffset": 6048,
      "componentType": 5126,
      "count": 4214,
      "max": [
        1705.704833984375,
        1287.71630859375,
        0.0
      ],
      "min": [
        -530.810302734375,
        -948.798828125,
        0.0
      ],
      "type": "VEC3"
    },
    {
      "bufferView": 2,
      "byteOffset": 56616,
      "componentType": 5126,
      "count": 4214,
      "max": [
        0.0,
        0.0,
        1.0
      ],
      "min": [
        0.0,
        0.0,
        1.0
      ],
      "type": "VEC3"
    },
    {
      "bufferView": 1,
      "byteOffset": 2016,
      "componentType": 5126,
      "count": 4214,
      "max": [
        2236.515380859375,
        2236.515380859375
      ],
      "min": [
        0.0,
        0.0
      ],
      "type": "VEC2"
    },
    {
      "bufferView": 0,
      "byteOffset": 3072,
      "componentType": 5125,
      "count": 19731,
      "type": "SCALAR"
    },
    {
      "bufferView": 2,
      "byteOffset": 107184,
      "componentType": 5126,
      "count": 14192,
      "max": [
        1691.1602783203125,
        1274.1409912109375,
        109.714599609375
      ],
      "min": [
        -516.2656860351563,
        -934.2542724609375,
        0.0
      ],
      "type": "VEC3"
    },
    {
      "bufferView": 2,
      "byteOffset": 277488,
      "componentType": 5126,
      "count": 14192,
      "max": [
        1.0,
        1.0,
        1.0
      ],
      "min": [
        -1.0,
        -1.0,
        0.0
      ],
      "type": "VEC3"
    },
    {
      "bufferView": 1,
      "byteOffset": 35728,
      "componentType": 5126,
      "count": 14192,
      "max": [
        1.7727999687194824,
        4.337600231170654
      ],
      "min": [
        -0.6991999745368958,
        -2.4094998836517334
      ],
      "type": "VEC2"
    },
    {
      "bufferView": 0,
      "byteOffset": 81996,
      "componentType": 5125,
      "count": 20922,
      "type": "SCALAR"
    },
    {
      "bufferView": 2,
      "byteOffset": 447792,
      "componentType": 5126,
      "count": 14380,
      "max": [
        1691.1602783203125,
        1274.6441650390625,
        109.714599609375
      ],
      "min": [
        -516.2656860351563,
        -934.2542724609375,
        0.0
      ],
      "type": "VEC3"
    },
    {
      "bufferView": 2,
      "byteOffset": 620352,
      "componentType": 5126,
      "count": 14380,
      "max": [
        1.0,
        1.0,
        0.054996997117996216
      ],
      "min": [
        -1.0,
        -1.0,
        0.0
      ],
      "type": "VEC3"
    },
    {
      "bufferView": 1,
      "byteOffset": 149264,
      "componentType": 5126,
      "count": 14380,
      "max": [
        1.7692999839782715,
        3.99429988861084
      ],
      "min": [
        -1.1426000595092773,
        -3.461400032043457
      ],
      "type": "VEC2"
    },
    {
      "bufferView": 0,
      "byteOffset": 165684,
      "componentType": 5125,
      "count": 21570,
      "type": "SCALAR"
    },
    {
      "bufferView": 2,
      "byteOffset": 792912,
      "componentType": 5126,
      "count": 14380,
      "max": [
        1691.1602783203125,
        1274.6441650390625,
        109.714599609375
      ],
      "min": [
        -516.2656860351563,
        -934.2542724609375,
        0.0
      ],
      "type": "VEC3"
    },
    {
      "bufferView": 2,
      "byteOffset": 965472,
      "componentType": 5126,
      "count": 14380,
      "max": [
        1.0,
        1.0,
        0.05250096693634987
      ],
      "min": [
        -1.0,
        -1.0,
        0.0
      ],
      "type": "VEC3"
    },
    {
      "bufferView": 1,
      "byteOffset": 264304,
      "componentType": 5126,
      "count": 14380,
      "max": [
        1.7789000272750854,
        3.595400094985962
      ],
      "min": [
        -0.6769000291824341,
        -3.3620998859405518
      ],
      "type": "VEC2"
    },
    {
      "bufferView": 0,
      "byteOffset": 251964,
      "componentType": 5125,
      "count": 21570,
      "type": "SCALAR"
    },
    {
      "bufferView": 2,
      "byteOffset": 1138032,
      "componentType": 5126,
      "count": 14380,
      "max": [
        1691.1602783203125,
        1273.959716796875,
        109.714599609375
      ],
      "min": [
        -516.2656860351563,
        -934.2542724609375,
        0.0
      ],
      "type": "VEC3"
    },
    {
      "bufferView": 2,
      "byteOffset": 1310592,
      "componentType": 5126,
      "count": 14380,
      "max": [
        1.0,
        1.0,
        0.06150081381201744
      ],
      "min": [
        -1.0,
        -1.0,
        0.0
      ],
      "type": "VEC3"
    },
    {
      "bufferView": 1,
      "byteOffset": 379344,
      "componentType": 5126,
      "count": 14380,
      "max": [
        2.0634000301361084,
        4.407299995422363
      ],
      "min": [
        -0.882099986076355,
        -2.9960999488830566
      ],
      "type": "VEC2"
    },
    {
      "bufferView": 0,
      "byteOffset": 338244,
      "componentType": 5125,
      "count": 21570,
      "type": "SCALAR"
    },
    {
      "bufferView": 2,
      "byteOffset": 1483152,
      "componentType": 5126,
      "count": 14376,
      "max": [
        1690.930908203125,
        1273.2220458984375,
        109.714599609375
      ],
      "min": [
        -515.8729858398438,
        -934.1458740234375,
        50.00310134887695
      ],
      "type": "VEC3"
    },
    {
      "bufferView": 2,
      "byteOffset": 1655664,
      "componentType": 5126,
      "count": 14376,
      "max": [
        0.0,
        0.0,
        1.0
      ],
      "min": [
        0.0,
        0.0,
        1.0
      ],
      "type": "VEC3"
    },
    {
      "bufferView": 1,
      "byteOffset": 494384,
      "componentType": 5126,
      "count": 14376,
      "max": [
        1.8733999729156494,
        1.5785000324249268
      ],
      "min": [
        -1.204300045967102,
        -0.4643999934196472
      ],
      "type": "VEC2"
    },
    {
      "bufferView": 0,
      "byteOffset": 424524,
      "componentType": 5125,
      "count": 21564,
      "type": "SCALAR"
    },
    {
      "bufferView": 2,
      "byteOffset": 1828176,
      "componentType": 5126,
      "count": 3832,
      "max": [
        1691.1602783203125,
        1273.1717529296875,
        106.38379669189453
      ],
      "min": [
        -516.2656860351563,
        -934.2542724609375,
        0.0
      ],
      "type": "VEC3"
    },
    {
      "bufferView": 2,
      "byteOffset": 1874160,
      "componentType": 5126,
      "count": 3832,
      "max": [
        1.0,
        1.0,
        0.040698640048503876
      ],
      "min": [
        -1.0,
        -1.0,
        0.0
      ],
      "type": "VEC3"
    },
    {
      "bufferView": 1,
      "byteOffset": 609392,
      "componentType": 5126,
      "count": 3832,
      "max": [
        1.5342999696731567,
        2.171799898147583
      ],
      "min": [
        -0.5845000147819519,
        -1.7268999814987183
      ],
      "type": "VEC2"
    },
    {
      "bufferView": 0,
      "byteOffset": 510780,
      "componentType": 5125,
      "count": 5748,
      "type": "SCALAR"
    }
  ],
  "asset": {
    "extras": {
      "author": "muratbesler (https://sketchfab.com/muratbesler)",
      "license": "CC-BY-4.0 (http://creativecommons.org/licenses/by/4.0/)",
      "source": "https://sketchfab.com/3d-models/low-poly-city-38a6b0154e584ba38fe4b2d29ed12f85",
      "title": "low poly city"
    },
    "generator": "Sketchfab-15.27.0",
    "version": "2.0"
  },
  "bufferViews": [
    {
      "buffer": 0,
      "byteLength": 533772,
      "name": "floatBufferViews",
      "target": 34963
    },
    {
      "buffer": 0,
      "byteLength": 640048,
      "byteOffset": 533772,
      "byteStride": 8,
      "name": "floatBufferViews",
      "target": 34962
    },
    {
      "buffer": 0,
      "byteLength": 1920144,
      "byteOffset": 1173820,
      "byteStride": 12,
      "name": "floatBufferViews",
      "target": 34962
    }
  ],
  "buffers": [
    {
      "byteLength": 3093964,
      "uri": "scene.bin"
    }
  ],
  "materials": [
    {
      "doubleSided": true,
      "name": "Material__23",
      "pbrMetallicRoughness": {
        "metallicFactor": 0.0,
        "roughnessFactor": 0.9
      }
    },
    {
      "doubleSided": true,
      "name": "wire_008008136",
      "pbrMetallicRoughness": {
        "metallicFactor": 0.0,
        "roughnessFactor": 0.9
      }
    },
    {
      "doubleSided": true,
      "name": "wire_145028177",
      "pbrMetallicRoughness": {
        "metallicFactor": 0.0,
        "roughnessFactor": 0.9
      }
    }
  ],
  "meshes": [
    {
      "name": "Object_0",
      "primitives": [
        {
          "attributes": {
            "NORMAL": 1,
            "POSITION": 0,
            "TEXCOORD_0": 2
          },
          "indices": 3,
          "material": 1,
          "mode": 4
        }
      ]
    },
    {
      "name": "Object_1",
      "primitives": [
        {
          "attributes": {
            "NORMAL": 5,
            "POSITION": 4,
            "TEXCOORD_0": 6
          },
          "indices": 7,
          "material": 2,
          "mode": 4
        }
      ]
    },
    {
      "name": "Object_2",
      "primitives": [
        {
          "attributes": {
            "NORMAL": 9,
            "POSITION": 8,
            "TEXCOORD_0": 10
          },
          "indices": 11,
          "material": 2,
          "mode": 4
        }
      ]
    },
    {
      "name": "Object_3",
      "primitives": [
        {
          "attributes": {
            "NORMAL": 13,
            "POSITION": 12,
            "TEXCOORD_0": 14
          },
          "indices": 15,
          "material": 2,
          "mode": 4
        }
      ]
    },
    {
      "name": "Object_4",
      "primitives": [
        {
          "attributes": {
            "NORMAL": 17,
            "POSITION": 16,
            "TEXCOORD_0": 18
          },
          "indices": 19,
          "material": 2,
          "mode": 4
        }
      ]
    },
    {
      "name": "Object_5",
      "primitives": [
        {
          "attributes": {
            "NORMAL": 21,
            "POSITION": 20,
            "TEXCOORD_0": 22
          },
          "indices": 23,
          "material": 2,
          "mode": 4
        }
      ]
    },
    {
      "name": "Object_6",
      "primitives": [
        {
          "attributes": {
            "NORMAL": 25,
            "POSITION": 24,
            "TEXCOORD_0": 26
          },
          "indices": 27,
          "material": 2,
          "mode": 4
        }
      ]
    },
    {
      "name": "Object_7",
      "primitives": [
        {
          "attributes": {
            "NORMAL": 29,
            "POSITION": 28,
            "TEXCOORD_0": 30
          },
          "indices": 31,
          "material": 0,
          "mode": 4
        }
      ]
    }
  ],
  "nodes": [
    {
      "children": [
        1
      ],
      "matrix": [
        -1.8369701465288538e-16,
        -2.220446049250313e-16,
        1.0,
        0.0,
        1.0,
        -4.078893104450762e-32,
        1.8369701465288538e-16,
        0.0,
        0.0,
        1.0,
        2.220446049250313e-16,
        0.0,
        0.0,
        0.0,
        0.0,
        1.0
      ],
      "name": "Sketchfab_model"
    },
    {
      "children": [
        2,
        3,
        4,
        5,
        6,
        7,
        8,
        9
      ],
      "name": "98b241ba40ed462f854a6a49e3dca488.obj.cleaner.materialmerger.gles"
    },
    {
      "mesh": 0,
      "name": "Object_2"
    },
    {
      "mesh": 1,
      "name": "Object_3"
    },
    {
      "mesh": 2,
      "name": "Object_4"
    },
    {
      "mesh": 3,
      "name": "Object_5"
    },
    {
      "mesh": 4,
      "name": "Object_6"
    },
    {
      "mesh": 5,
      "name": "Object_7"
    },
    {
      "mesh": 6,
      "name": "Object_8"
    },
    {
      "mesh": 7,
      "name": "Object_9"
    }
  ],
  "scene": 0,
  "scenes": [
    {
      "name": "Sketchfab_Scene",
      "nodes": [
        0
      ]
    }
  ]
}
